<?xml version="1.0" standalone="no"?>
<svg viewBox="0 0 200 200" xmlns="http://www.w3.org/2000/svg">
  <path fill="#D26121" d="M45.9,-75C59.4,-71.8,70.1,-59.2,77.7,-45.1C85.2,-31.1,89.7,-15.5,88.5,-0.7C87.4,14.2,80.5,28.4,69.2,36C57.9,43.6,42.2,44.7,29.9,51.5C17.6,58.3,8.8,70.9,-2.2,74.8C-13.2,78.6,-26.4,73.6,-40,67.6C-53.6,61.5,-67.6,54.3,-77.2,42.8C-86.9,31.4,-92.2,15.7,-91.6,0.3C-91,-15,-84.5,-30,-75.2,-42C-65.8,-53.9,-53.6,-62.7,-40.6,-66.2C-27.5,-69.7,-13.8,-67.8,1.2,-69.9C16.2,-72.1,32.5,-78.2,45.9,-75Z" transform="translate(100 100)" />
</svg>
